<svg width="112" height="4" viewBox="0 0 112 4" fill="none" xmlns="http://www.w3.org/2000/svg">
<path d="M0.00101042 1.59932C0.00101042 1.54436 0.0453749 1.49969 0.100341 1.49933L110.751 0.75837C111.44 0.753757 112.001 1.311 112.001 2C112.001 2.689 111.44 3.24624 110.751 3.24163L0.100345 2.50066C0.0453792 2.50029 0.00101042 2.45563 0.00101042 2.40066V1.59932Z" fill="url(#paint0_radial)"/>
<path d="M0.00101042 1.59932C0.00101042 1.54436 0.0453749 1.49969 0.100341 1.49933L110.751 0.75837C111.44 0.753757 112.001 1.311 112.001 2C112.001 2.689 111.44 3.24624 110.751 3.24163L0.100345 2.50066C0.0453792 2.50029 0.00101042 2.45563 0.00101042 2.40066V1.59932Z" fill="url(#paint1_radial)"/>
<path d="M0.00101042 1.59932C0.00101042 1.54436 0.0453749 1.49969 0.100341 1.49933L110.751 0.75837C111.44 0.753757 112.001 1.311 112.001 2C112.001 2.689 111.44 3.24624 110.751 3.24163L0.100345 2.50066C0.0453792 2.50029 0.00101042 2.45563 0.00101042 2.40066V1.59932Z" fill="url(#paint2_radial)"/>
<path d="M0.00101042 1.59932C0.00101042 1.54436 0.0453749 1.49969 0.100341 1.49933L110.751 0.75837C111.44 0.753757 112.001 1.311 112.001 2C112.001 2.689 111.44 3.24624 110.751 3.24163L0.100345 2.50066C0.0453792 2.50029 0.00101042 2.45563 0.00101042 2.40066V1.59932Z" fill="url(#paint3_radial)"/>
<path d="M0.00101042 1.59932C0.00101042 1.54436 0.0453749 1.49969 0.100341 1.49933L110.751 0.75837C111.44 0.753757 112.001 1.311 112.001 2C112.001 2.689 111.44 3.24624 110.751 3.24163L0.100345 2.50066C0.0453792 2.50029 0.00101042 2.45563 0.00101042 2.40066V1.59932Z" fill="url(#paint4_linear)" fill-opacity="0.2"/>
<path d="M0.00101042 1.59932C0.00101042 1.54436 0.0453749 1.49969 0.100341 1.49933L110.751 0.75837C111.44 0.753757 112.001 1.311 112.001 2C112.001 2.689 111.44 3.24624 110.751 3.24163L0.100345 2.50066C0.0453792 2.50029 0.00101042 2.45563 0.00101042 2.40066V1.59932Z" fill="url(#paint5_linear)"/>
<defs>
<radialGradient id="paint0_radial" cx="0" cy="0" r="1" gradientUnits="userSpaceOnUse" gradientTransform="translate(107 2) rotate(89.9999) scale(1.5 118.065)">
<stop stop-color="#A46C18"/>
<stop offset="0.177083" stop-color="#E49E35"/>
<stop offset="0.203125" stop-color="#CAA671"/>
<stop offset="0.395833" stop-color="#B07E34"/>
<stop offset="0.515625" stop-color="#CAA671"/>
<stop offset="0.567708" stop-color="#F2CF99"/>
<stop offset="0.729167" stop-color="#AB8F64"/>
<stop offset="0.833333" stop-color="#B4A081"/>
<stop offset="0.958333" stop-color="#CAA671"/>
<stop offset="1" stop-color="#FFC46A" stop-opacity="0"/>
</radialGradient>
<radialGradient id="paint1_radial" cx="0" cy="0" r="1" gradientUnits="userSpaceOnUse" gradientTransform="translate(108 2) rotate(90.0001) scale(1.5 41.2882)">
<stop offset="0.75"/>
<stop offset="1" stop-opacity="0"/>
</radialGradient>
<radialGradient id="paint2_radial" cx="0" cy="0" r="1" gradientUnits="userSpaceOnUse" gradientTransform="translate(107 2) rotate(89.9999) scale(1.5 24.2071)">
<stop stop-color="#A46C18"/>
<stop offset="0.958333" stop-color="#CAA671"/>
<stop offset="1" stop-color="#FFC46A" stop-opacity="0"/>
</radialGradient>
<radialGradient id="paint3_radial" cx="0" cy="0" r="1" gradientUnits="userSpaceOnUse" gradientTransform="translate(108 2) rotate(90.0001) scale(1.5 8.04514)">
<stop offset="0.75"/>
<stop offset="1" stop-opacity="0"/>
</radialGradient>
<linearGradient id="paint4_linear" x1="56" y1="3" x2="56" y2="1" gradientUnits="userSpaceOnUse">
<stop/>
<stop offset="0.09375" stop-opacity="0"/>
<stop offset="0.473958" stop-color="white" stop-opacity="0.29"/>
<stop offset="0.833333" stop-opacity="0"/>
<stop offset="0.994792"/>
</linearGradient>
<linearGradient id="paint5_linear" x1="4.08574e-07" y1="1.99999" x2="1.5" y2="2" gradientUnits="userSpaceOnUse">
<stop/>
<stop offset="0.114583"/>
<stop offset="0.197917" stop-color="white"/>
<stop offset="0.840301" stop-color="white"/>
<stop offset="0.894687" stop-color="white" stop-opacity="0"/>
</linearGradient>
</defs>
</svg>
